<?xml version="1.0" standalone="no"?><!DOCTYPE svg PUBLIC "-//W3C//DTD SVG 1.1//EN" "http://www.w3.org/Graphics/SVG/1.1/DTD/svg11.dtd"><svg t="1563183443511" class="icon" viewBox="0 0 1024 1024" version="1.1" xmlns="http://www.w3.org/2000/svg" p-id="33242" xmlns:xlink="http://www.w3.org/1999/xlink" width="200" height="200"><defs><style type="text/css"></style></defs><path d="M955.733 955.734h-204.8c-37.702 0-68.267-30.564-68.267-68.267v-204.8c0-37.702 30.564-68.267 68.267-68.267H819.2v-68.267H204.8V614.4h68.267c37.702 0 68.267 30.564 68.267 68.267v204.8c0 37.702-30.564 68.267-68.267 68.267h-204.8C30.565 955.734 0 925.17 0 887.467v-204.8C0 644.965 30.564 614.4 68.267 614.4h68.267V512c0-18.851 15.282-34.133 34.133-34.133h307.2V409.6H409.6c-37.702 0-68.267-30.564-68.267-68.267v-204.8c0-37.702 30.564-68.267 68.267-68.267h204.8c37.702 0 68.267 30.564 68.267 68.267v204.8c0 37.702-30.564 68.267-68.267 68.267h-68.267v68.267h307.2c18.851 0 34.133 15.282 34.133 34.133v102.4h68.267c37.702 0 68.267 30.564 68.267 68.267v204.8c0 37.702-30.564 68.267-68.267 68.267z" p-id="33243"></path></svg>