<?xml version="1.0" standalone="no"?><!DOCTYPE svg PUBLIC "-//W3C//DTD SVG 1.1//EN" "http://www.w3.org/Graphics/SVG/1.1/DTD/svg11.dtd"><svg t="1565836359316" class="icon" viewBox="0 0 1024 1024" version="1.1" xmlns="http://www.w3.org/2000/svg" p-id="1964" xmlns:xlink="http://www.w3.org/1999/xlink" width="200" height="200"><defs><style type="text/css"></style></defs><path d="M919.04 0h-814.08C47.104 0 0 47.104 0 104.96v814.08C0 976.896 47.104 1024 104.96 1024h814.08c57.856 0 104.96-47.104 104.96-104.96v-814.08C1024 47.104 976.896 0 919.04 0z m-92.672 290.816l-2.048 1.024-0.512 2.56c-22.528 154.112-156.672 270.336-311.808 270.336S222.208 448.512 200.192 294.4l-0.512-2.048-2.048-1.024c-15.36-9.216-24.576-24.576-24.576-41.984 0-27.136 22.016-49.152 49.152-49.152s49.152 22.016 49.152 49.152c0 14.336-6.656 27.648-18.432 37.376l-2.56 2.048 0.512 3.072c20.48 129.024 130.56 222.72 261.12 222.72s240.64-93.696 261.12-222.72l0.512-3.072-2.048-2.048c-11.776-9.728-18.432-23.04-18.432-37.376 0-27.136 22.016-49.152 49.152-49.152s49.152 22.016 49.152 49.152c-0.512 16.896-9.728 32.256-25.088 41.472z" p-id="1965"></path></svg>